<svg width="96" height="96" viewBox="0 0 96 96" fill="none" xmlns="http://www.w3.org/2000/svg">
<rect width="96" height="96" fill="white"/>
<path d="M26 8C21.5817 8 18 11.5817 18 16V80C18 84.4183 21.5817 88 26 88H70C74.4183 88 78 84.4183 78 80V32L54 8L26 8Z" fill="#DF2800"/>
<path d="M54 8L78 32H54V8Z" fill="white" fill-opacity="0.5"/>
<path d="M29.6592 67.6901V53.0774H35.8761C37.4153 53.0774 38.6348 53.4972 39.5543 54.3568C40.4738 55.1964 40.9336 56.3358 40.9336 57.7551C40.9336 59.1744 40.4738 60.3138 39.5543 61.1534C38.6348 62.013 37.4153 62.4328 35.8761 62.4328H33.3973V67.6901H29.6592ZM33.3973 59.2544H35.4563C36.016 59.2544 36.4558 59.1344 36.7557 58.8547C37.0555 58.5948 37.2155 58.2349 37.2155 57.7552C37.2155 57.2755 37.0556 56.9156 36.7557 56.6558C36.4559 56.3759 36.0161 56.256 35.4563 56.256H33.3973V59.2544ZM42.4728 67.6901V53.0774H47.6502C48.6697 53.0774 49.6292 53.2173 50.5287 53.5172C51.4282 53.817 52.2479 54.2369 52.9675 54.8166C53.6872 55.3763 54.2668 56.1359 54.6866 57.0955C55.0864 58.055 55.3064 59.1545 55.3064 60.3938C55.3064 61.6132 55.0865 62.7127 54.6866 63.6721C54.2668 64.6317 53.6872 65.3913 52.9675 65.951C52.2478 66.5306 51.4282 66.9504 50.5287 67.2503C49.6292 67.5501 48.6697 67.6901 47.6502 67.6901H42.4728ZM46.1309 64.5118H47.2104C47.7901 64.5118 48.3298 64.4518 48.8296 64.3119C49.3093 64.172 49.7691 63.952 50.2089 63.6522C50.6287 63.3524 50.9685 62.9325 51.2084 62.3728C51.4482 61.8132 51.5682 61.1534 51.5682 60.3938C51.5682 59.6142 51.4482 58.9545 51.2084 58.3948C50.9685 57.8352 50.6287 57.4154 50.2089 57.1155C49.7691 56.8157 49.3094 56.5957 48.8296 56.4558C48.3298 56.3159 47.7901 56.2559 47.2104 56.2559H46.1309V64.5118ZM57.1854 67.6901V53.0774H67.5803V56.2559H60.9236V58.5947H66.2409V61.7531H60.9236V67.6901H57.1854Z" fill="white"/>
</svg>
